<?xml version="1.0" encoding="UTF-8" standalone="no"?>
<!-- Created with Inkscape (http://www.inkscape.org/) -->

<svg
   xmlns:dc="http://purl.org/dc/elements/1.1/"
   xmlns:cc="http://creativecommons.org/ns#"
   xmlns:rdf="http://www.w3.org/1999/02/22-rdf-syntax-ns#"
   xmlns:svg="http://www.w3.org/2000/svg"
   xmlns="http://www.w3.org/2000/svg"
   xmlns:sodipodi="http://sodipodi.sourceforge.net/DTD/sodipodi-0.dtd"
   xmlns:inkscape="http://www.inkscape.org/namespaces/inkscape"
   version="1.1"
   id="svg2"
   width="600"
   height="600"
   viewBox="0 0 600 600"
   sodipodi:docname="google_logo.svg"
   inkscape:version="0.92.3 (unknown)">
  <metadata
     id="metadata8">
    <rdf:RDF>
      <cc:Work
         rdf:about="">
        <dc:format>image/svg+xml</dc:format>
        <dc:type
           rdf:resource="http://purl.org/dc/dcmitype/StillImage" />
        <dc:title></dc:title>
      </cc:Work>
    </rdf:RDF>
  </metadata>
  <defs
     id="defs6" />
  <sodipodi:namedview
     pagecolor="#ffffff"
     bordercolor="#666666"
     borderopacity="1"
     objecttolerance="10"
     gridtolerance="10"
     guidetolerance="10"
     inkscape:pageopacity="0"
     inkscape:pageshadow="2"
     inkscape:window-width="1366"
     inkscape:window-height="744"
     id="namedview4"
     showgrid="false"
     inkscape:zoom="0.89"
     inkscape:cx="300"
     inkscape:cy="300"
     inkscape:window-x="0"
     inkscape:window-y="0"
     inkscape:window-maximized="1"
     inkscape:current-layer="svg2" />
  <path
     style="fill:#ffcc00;fill-opacity:1;fill-rule:nonzero;stroke:none;stroke-width:34.1012001;stroke-linecap:round;stroke-linejoin:round;stroke-miterlimit:4;stroke-dasharray:none;stroke-opacity:1"
     d="m 133.68542,346.19346 c -0.0834,-0.88051 -0.0834,-2.03314 0,-2.56142 0.0834,-0.52829 -0.37692,-0.96054 -1.02317,-0.96054 -1.60219,0 -9.7739,-24.91201 -12.81309,-39.06167 -3.3963,-15.8121 -4.36516,-34.07401 -2.83628,-53.46108 1.26154,-15.99757 7.2167,-44.51331 9.29603,-44.51331 0.57431,0 0.71248,-0.8645 0.30698,-1.92107 -0.4054,-1.0566 -0.0654,-1.92105 0.75617,-1.92105 0.82131,0 1.17801,-0.51015 0.79271,-1.13363 -1.00819,-1.63126 1.82386,-9.11209 3.44958,-9.11209 0.75288,0 1.00764,-0.36143 0.56614,-0.80273 -0.44151,-0.4415 0.075,-2.49955 1.14723,-4.57348 l 1.94993,-3.77081 4.7227,3.45816 c 2.59752,1.90201 5.79623,4.6805 7.10835,6.17443 1.31208,1.49392 2.5079,2.42807 2.65741,2.07585 0.41379,-0.97528 31.45724,23.18381 31.45724,24.48122 0,0.62319 0.43225,0.99584 0.96053,0.82815 1.65571,-0.52551 15.68869,10.76755 15.68869,12.62549 0,0.97197 -0.43221,1.76833 -0.96053,1.76975 -0.52829,0.001 -1.1077,2.06221 -1.28754,4.57952 -0.18009,2.51732 -0.82752,5.54181 -1.43923,6.72117 -1.69608,3.26999 -0.94486,35.44992 1.08772,46.59539 l 1.80036,9.87202 -3.73788,2.93511 c -2.05583,1.61429 -4.18128,2.79101 -4.7232,2.61495 -0.54199,-0.17633 -0.98538,0.18678 -0.98538,0.80666 0,1.3981 -13.48053,11.68025 -15.31356,11.68025 -0.73463,0 -1.33569,0.50064 -1.33569,1.11252 0,1.70265 -23.15915,18.79769 -24.80719,18.31163 -0.79606,-0.23496 -1.02632,-0.008 -0.51165,0.50881 1.06176,1.06174 -7.76885,8.15252 -10.22088,8.20709 -0.8805,0.021 -1.66915,-0.6848 -1.75253,-1.56529 z"
     id="path43"
     inkscape:connector-curvature="0" />
  <path
     style="fill:#cc0000;fill-opacity:1;fill-rule:nonzero;stroke:none;stroke-width:34.1012001;stroke-linecap:round;stroke-linejoin:round;stroke-miterlimit:4;stroke-dasharray:none;stroke-opacity:1"
     d="m 188.90764,225.86737 c -4.57856,-3.517 -12.64702,-9.64903 -17.92996,-13.62668 -5.28291,-3.97766 -9.89346,-7.53756 -10.24568,-7.91088 -0.35221,-0.37316 -6.25947,-4.92549 -13.12726,-10.11589 -6.86784,-5.19038 -12.48695,-10.01356 -12.48695,-10.71816 0,-1.7254 12.21875,-22.0522 17.10081,-28.44841 19.92382,-26.1033 44.63597,-46.32044 72.23077,-59.09236 17.56468,-8.129608 16.49661,-7.707705 28.49384,-11.254911 25.39302,-7.507895 61.53577,-9.634796 87.85086,-5.169775 20.31695,3.447268 51.6475,14.917446 64.51888,23.620486 1.78017,1.20366 5.82761,3.86349 8.99432,5.91078 8.00979,5.17829 20.49692,14.64041 20.49692,15.53154 0,1.87709 -55.36324,55.75955 -56.12618,54.625 -0.47601,-0.70785 -3.45892,-3.0445 -6.62869,-5.19252 -49.69277,-33.6749 -120.59023,-21.7352 -156.56771,26.36732 -2.84839,3.80829 -7.99736,12.42677 -11.44213,19.15212 -3.4448,6.72536 -6.38566,12.33795 -6.53526,12.47243 -0.14951,0.13444 -4.01803,-2.63308 -8.59658,-6.15009 z"
     id="path45"
     inkscape:connector-curvature="0" />
  <path
     style="fill:#669900;fill-opacity:1;fill-rule:nonzero;stroke:none;stroke-width:34.1012001;stroke-linecap:round;stroke-linejoin:round;stroke-miterlimit:4;stroke-dasharray:none;stroke-opacity:1"
     d="M 292.31496,452.46395 C 227.82557,448.2008 168.29719,409.97737 137.36124,352.96744 l -3.67582,-6.77398 4.97785,-4.1121 c 2.73782,-2.26164 11.189,-8.85297 18.78036,-14.6474 7.5914,-5.79444 18.85469,-14.46812 25.02956,-19.27492 6.17488,-4.80678 11.88819,-9.14032 12.69632,-9.63011 0.94512,-0.57286 3.40514,3.1049 6.89618,10.30996 18.32389,37.81785 51.29152,61.13316 93.11534,65.85277 22.87866,2.58173 50.41536,-2.12452 69.87351,-11.94196 l 7.42335,-3.74535 11.14697,8.62808 c 6.13087,4.74544 19.73926,15.25359 30.24099,23.35137 l 19.09395,14.72325 -5.64651,4.90003 c -26.15716,22.69917 -67.51498,39.57697 -101.46226,41.4059 -7.17457,0.38656 -14.4855,0.85566 -16.24645,1.04253 -1.761,0.18678 -9.54128,-0.0796 -17.28962,-0.59156 z"
     id="path47"
     inkscape:connector-curvature="0" />
  <path
     style="fill:#3366cc;fill-opacity:1;fill-rule:nonzero;stroke:none;stroke-width:34.1012001;stroke-linecap:round;stroke-linejoin:round;stroke-miterlimit:4;stroke-dasharray:none;stroke-opacity:1"
     d="m 412.39173,391.20338 c -9.86145,-7.75352 -22.97277,-17.92658 -29.13617,-22.60673 -6.16343,-4.68021 -11.20407,-8.82596 -11.20142,-9.21281 0.003,-0.38698 3.51714,-3.54219 7.81006,-7.01178 13.93376,-11.26152 24.64829,-28.73127 29.31759,-47.8017 l 1.01914,-4.1623 h -52.37431 -52.37425 v -37.14063 -37.14061 h 90.1744 90.17442 l 1.70253,9.28515 c 2.11966,11.56008 2.10785,43.84903 -0.0209,59.08338 -3.899,27.89363 -14.46699,56.52514 -29.36342,79.55361 -7.66373,11.8474 -24.38305,31.44903 -26.70989,31.31459 -0.59789,-0.0335 -9.15557,-6.40661 -19.01703,-14.16017 z"
     id="path49"
     inkscape:connector-curvature="0" />
</svg>
